<svg width="524" height="177" viewBox="0 0 524 177" fill="none" xmlns="http://www.w3.org/2000/svg">
<path d="M82.2695 0.0535008C81.5751 0.128977 77.2579 0.52145 75.703 0.642213C75.0388 0.702594 74.1935 0.808258 73.8161 0.883734C73.4387 0.974306 72.3519 1.14036 71.4009 1.26112C70.4499 1.38188 69.363 1.57813 68.9856 1.69889C68.6082 1.80456 68.0044 1.94041 67.627 2.00079C67.2497 2.04608 66.4798 2.22723 65.8911 2.37818C65.3175 2.52913 64.4268 2.75557 63.9287 2.87633C61.5285 3.44995 60.8643 3.63108 60.3813 3.82732C60.0945 3.94808 59.4756 4.14433 59.0227 4.26509C58.5699 4.37076 57.6188 4.68776 56.9094 4.94438C56.1999 5.201 55.2942 5.51801 54.8715 5.65387C54.4639 5.78972 53.9809 5.97086 53.8148 6.07653C53.6488 6.1822 53.2714 6.34825 52.9695 6.43882C52.6676 6.5294 52.1694 6.74073 51.8524 6.90678C51.5203 7.07282 51.1882 7.20868 51.0977 7.20868C50.9467 7.20868 48.7277 8.23516 47.7012 8.77859C47.4899 8.89936 46.4483 9.44279 45.3614 10.0013C43.3689 11.0429 42.9915 11.2542 40.7423 12.5373C39.2026 13.4129 37.7383 14.3639 35.625 15.8885C35.3382 16.0998 34.8551 16.4319 34.5683 16.6433C29.134 20.4624 21.3146 28.161 16.8615 34.0784C16.3935 34.6973 15.9558 35.2709 15.8954 35.3615C15.2916 36.1162 14.0236 37.988 12.9971 39.6636C12.3027 40.7807 11.6234 41.8675 11.4875 42.0789C11.3668 42.2902 11.1554 42.6374 11.0196 42.8638C10.8988 43.1054 10.3856 44.0111 9.88744 44.9017C9.3742 45.8074 8.7251 47.0452 8.42319 47.6641C7.38161 49.8228 6.7929 51.121 6.7929 51.2417C6.7929 51.3021 6.68723 51.5587 6.55137 51.8154C6.41551 52.0569 6.18908 52.6003 6.03813 53.023C5.88718 53.4305 5.66075 53.974 5.52489 54.2306C5.38903 54.4721 5.28336 54.774 5.28336 54.8646C5.28336 54.9703 5.10222 55.5137 4.89088 56.0722C3.5474 59.5743 2.30958 63.9369 1.66049 67.4692C1.50953 68.2843 1.34348 69.0089 1.2982 69.0844C1.23782 69.1599 1.07177 70.1713 0.905719 71.3185C0.739671 72.4658 0.543432 73.779 0.467955 74.2319C0.241525 75.4395 0 80.7229 0 84.2401C0 88.2856 0.241525 92.618 0.588718 94.7615C0.754766 95.7125 0.920815 96.9051 0.981196 97.4032C1.02648 97.9014 1.17744 98.6863 1.2831 99.1392C1.40387 99.592 1.56991 100.407 1.64539 100.951C1.73596 101.494 1.9322 102.445 2.09825 103.064C2.2643 103.683 2.47563 104.528 2.5813 104.951C3.03416 106.823 3.84931 109.495 4.5286 111.366C4.78522 112.076 5.11731 113.027 5.26827 113.48C5.41922 113.933 5.64565 114.552 5.78151 114.838C5.90227 115.125 6.21927 115.88 6.49099 116.499C6.7627 117.118 7.62314 118.914 8.40809 120.499C9.70629 123.126 10.0988 123.865 11.1102 125.631C11.3064 125.964 11.6385 126.537 11.8498 126.915C12.3178 127.745 12.3027 127.73 13.8424 130.085C14.5217 131.126 15.3972 132.409 15.7746 132.953C16.152 133.496 16.5747 134.1 16.7256 134.311C17.2992 135.172 20.7259 139.217 22.6581 141.331C25.9187 144.893 28.8924 147.701 31.8511 149.98C32.5606 150.524 33.3758 151.173 33.6626 151.399C34.3419 151.958 34.3268 151.943 35.474 152.728C36.0174 153.105 36.4854 153.437 36.5307 153.482C36.6363 153.588 39.0818 155.188 39.7762 155.611C40.1083 155.807 40.4857 156.033 40.6215 156.124C40.7574 156.2 41.1951 156.471 41.6027 156.698C42.0103 156.924 42.6141 157.271 42.9462 157.483C43.2783 157.679 43.8519 157.996 44.2293 158.192C44.6067 158.388 45.5275 158.886 46.2672 159.279C48.4409 160.456 50.1165 161.272 52.2298 162.162C52.7732 162.389 53.5733 162.736 54.0111 162.932C54.4488 163.128 54.8866 163.294 54.9923 163.294C55.0828 163.294 55.3696 163.4 55.6112 163.521C56.064 163.762 57.6339 164.336 58.8718 164.728C59.2491 164.834 59.853 165.045 60.2303 165.166C61.7852 165.694 64.9099 166.51 66.9478 166.917C67.7025 167.068 68.4724 167.264 68.6837 167.34C68.8951 167.415 69.68 167.566 70.4197 167.657C71.1744 167.763 71.9896 167.898 72.2311 167.974C72.4877 168.064 73.4689 168.215 74.4199 168.351C75.3709 168.472 76.8503 168.668 77.6956 168.804C79.9146 169.136 85.5301 169.302 89.8926 169.166C93.8174 169.046 94.3911 169 96.3836 168.653C97.0478 168.532 98.0743 168.397 98.6479 168.351C99.2366 168.291 100.082 168.155 100.55 168.034C101.018 167.913 101.939 167.747 102.588 167.672C103.237 167.581 104.082 167.415 104.46 167.295C104.837 167.174 105.411 167.038 105.743 166.993C106.407 166.887 108.671 166.283 109.743 165.921C110.12 165.8 110.815 165.589 111.298 165.468C111.781 165.347 112.324 165.181 112.505 165.076C112.687 164.985 113.139 164.819 113.517 164.713C114.121 164.532 114.89 164.26 117.291 163.37C117.668 163.234 118.604 162.826 119.374 162.449C120.144 162.087 120.823 161.785 120.883 161.785C120.944 161.785 121.231 161.664 121.517 161.498C121.804 161.347 122.438 161.105 122.921 160.97C123.978 160.668 124.567 160.788 125.518 161.528C125.85 161.785 128.386 164.306 131.163 167.113C137.941 173.982 138.832 174.691 141.972 175.839C144.447 176.744 148.719 176.774 151.482 175.899C152.523 175.567 154.063 174.872 155.104 174.269C156.237 173.62 157.882 172.08 158.863 170.766C160.433 168.668 161.112 166.978 161.55 164.094L161.882 161.936L161.55 160.019C161.127 157.528 160.524 155.928 159.195 153.875C158.818 153.286 156.78 151.127 153.595 147.973C147.979 142.387 136.462 131.096 134.046 128.801C133.186 127.971 128.491 123.292 123.631 118.416C118.77 113.525 114.106 108.906 113.245 108.151C110.785 105.962 109.351 105.072 106.799 104.166C105.622 103.758 105.516 103.743 102.573 103.743C99.8103 103.758 99.4782 103.789 98.7234 104.09C98.2705 104.272 97.8026 104.423 97.6969 104.423C97.5762 104.423 97.0327 104.649 96.4591 104.936C93.2287 106.521 90.738 109.102 89.3945 112.257C88.7907 113.661 88.3076 115.97 88.2171 117.857C88.1416 119.352 88.1869 119.85 88.5039 121.405C88.836 122.99 89.3643 124.514 89.8172 125.254C89.9077 125.375 90.0889 125.722 90.2549 126.009C90.5417 126.522 91.538 127.956 91.9607 128.424C92.0664 128.56 92.5343 129.088 92.9872 129.632C93.44 130.16 94.9345 131.609 96.3082 132.862C100.278 136.485 100.791 137.104 100.188 137.617C99.8857 137.859 97.8479 138.508 96.9874 138.613C96.5799 138.674 95.8402 138.81 95.3722 138.93C94.4363 139.157 92.7758 139.338 89.1077 139.58C85.9528 139.806 79.4618 139.444 77.0616 138.93C76.488 138.795 75.4917 138.598 74.8728 138.478C72.4726 138.01 71.5216 137.753 69.0611 136.953C68.6535 136.817 67.9742 136.621 67.5516 136.5C67.144 136.379 66.5251 136.138 66.193 135.972C65.876 135.806 65.5288 135.67 65.4231 135.67C65.2571 135.67 64.1098 135.202 62.872 134.613C61.4531 133.949 58.4491 132.455 57.9358 132.153C52.1241 128.771 46.3275 123.85 42.4933 119.065C41.6631 118.023 40.8479 116.982 40.6819 116.74C40.5158 116.499 40.2441 116.121 40.0781 115.895C39.2931 114.823 37.4515 111.955 37.1043 111.291C35.2325 107.608 34.4626 105.992 33.889 104.423C33.6626 103.804 33.3607 102.988 33.2097 102.611C32.6814 101.328 31.6096 97.373 31.3832 95.9692C31.3077 95.4257 31.1416 94.6106 31.0209 94.1577C30.9001 93.7049 30.7341 92.4821 30.6435 91.4406C30.5529 90.399 30.4171 89.1461 30.3265 88.6479C30.085 87.1384 29.9944 82.5947 30.1756 80.5719C30.7039 74.4432 31.1567 72.0582 32.6059 67.7409C33.4512 65.22 33.6324 64.7068 33.9494 64.0426C34.1154 63.7105 34.4626 62.9557 34.7192 62.3821C34.9759 61.7934 35.2476 61.2197 35.3231 61.099C35.3985 60.9782 35.7759 60.2536 36.1684 59.514C37.1043 57.7327 37.3156 57.3402 37.6477 56.7968C37.8138 56.5402 38.1006 56.0873 38.2968 55.7703C40.1083 52.872 40.0932 52.8871 41.9952 50.4719C44.5312 47.2566 49.8749 42.0638 52.4412 40.3429C52.6827 40.1769 53.0601 39.9051 53.2865 39.7391C53.7243 39.4221 55.113 38.4862 56.0036 37.9277C57.5132 36.9465 62.8267 34.2444 63.8381 33.9123C64.0495 33.8519 64.7438 33.5802 65.3627 33.3236C68.1856 32.1311 72.3217 30.8782 75.2804 30.3196C76.1257 30.1536 76.8956 29.9875 76.9711 29.9271C77.0616 29.8819 78.7674 29.6705 80.7902 29.4592C83.779 29.1422 84.8961 29.0818 86.8736 29.1573C89.8474 29.2629 94.7382 29.7611 95.8553 30.063C96.3082 30.1989 96.8516 30.3045 97.0629 30.3045C97.2743 30.3045 97.8177 30.4102 98.2705 30.5461C98.7234 30.6668 99.614 30.9083 100.233 31.0593C101.305 31.3159 102.316 31.6178 103.327 31.9952C103.584 32.0707 104.158 32.282 104.611 32.433C105.063 32.599 105.652 32.8254 105.894 32.9311C106.15 33.0519 106.513 33.1877 106.724 33.2481C106.935 33.3085 107.313 33.4896 107.569 33.6406C107.826 33.8066 108.128 33.9274 108.218 33.9274C108.309 33.9274 109.109 34.2595 109.985 34.6822C110.86 35.0897 111.6 35.4369 111.63 35.4369C111.675 35.4369 113.819 36.6144 115.298 37.4748C115.449 37.5503 116.385 38.1692 117.366 38.8334C121.08 41.309 123.329 43.1657 126.514 46.4112C129.246 49.1737 131.707 52.1776 133.307 54.6835C135.028 57.3855 135.737 58.6082 136.839 60.7971C138.077 63.2425 138.303 63.8161 139.858 68.2693C139.994 68.6768 140.19 69.4316 140.296 69.9297C140.402 70.4279 140.598 71.1675 140.734 71.5902C140.854 71.9978 141.005 72.6167 141.051 72.9488C141.111 73.2809 141.277 74.1262 141.443 74.8357C141.821 76.5113 142.213 80.2096 142.304 83.1381C142.424 86.7912 141.881 91.818 140.915 95.9692C140.311 98.5052 139.043 102.596 138.5 103.743C137.518 105.826 136.869 107.804 136.854 108.8C136.839 109.947 137.383 111.2 138.439 112.514C138.907 113.087 140.719 114.929 142.455 116.589C144.175 118.235 147.708 121.692 150.289 124.243C152.885 126.809 155.255 129.073 155.572 129.269C156.297 129.707 157.112 129.737 157.882 129.33C158.622 128.952 159.105 128.379 160.644 125.933C161.067 125.269 161.565 124.484 161.761 124.197C162.426 123.186 164.071 119.956 165.294 117.329C165.55 116.74 165.943 115.925 166.139 115.518C166.335 115.095 166.501 114.672 166.501 114.552C166.501 114.446 166.607 114.174 166.728 113.963C166.849 113.736 167.09 113.178 167.241 112.725C168.494 108.951 168.796 108.015 169.641 105.102C169.822 104.513 170.034 103.622 170.124 103.109C170.215 102.581 170.381 101.902 170.487 101.6C170.592 101.283 170.728 100.649 170.788 100.196C170.849 99.743 170.985 98.9882 171.105 98.5354C171.226 98.0674 171.392 97.0107 171.483 96.1956C171.573 95.3654 171.739 94.037 171.86 93.252C172.555 88.8744 172.555 77.2661 171.86 73.4017C171.755 72.7375 171.573 71.5751 171.498 70.8355C171.407 70.0807 171.272 69.2354 171.181 68.9485C171.09 68.6617 170.924 67.7862 170.804 67.0163C170.668 66.2465 170.502 65.4313 170.411 65.2049C170.321 64.9785 170.185 64.4199 170.109 63.9671C170.019 63.5142 169.822 62.7293 169.671 62.2311C169.505 61.733 169.143 60.5706 168.841 59.6649C167.86 56.5402 166.426 52.6909 165.988 51.9965C165.867 51.8154 165.732 51.4984 165.671 51.287C165.55 50.8794 162.803 45.3395 162.139 44.162C161.928 43.7846 161.49 43.0148 161.173 42.4563C160.66 41.5354 158.441 38.1692 157.625 37.037C157.444 36.7804 157.172 36.3879 157.022 36.1766C156.629 35.5879 154.214 32.4481 153.776 31.965C153.67 31.8443 153.036 31.0895 152.387 30.3045C151.723 29.5196 149.761 27.4364 148.01 25.6854C143.194 20.87 138.047 16.7489 132.461 13.277C132.129 13.0657 131.677 12.7638 131.45 12.6128C131.224 12.4619 130.876 12.2656 130.695 12.175C130.499 12.0996 129.971 11.7977 129.518 11.5259C128.34 10.8014 123.012 8.09931 121.668 7.52568C121.049 7.26906 120.264 6.92186 119.932 6.77091C118.015 5.88029 114.83 4.70286 112.762 4.14433C112.309 4.02357 111.736 3.84242 111.479 3.75185C110.528 3.41975 108.43 2.84613 107.781 2.75555C107.403 2.69517 106.845 2.54423 106.528 2.43856C106.211 2.3178 105.305 2.13665 104.535 2.00079C103.765 1.88003 102.965 1.71399 102.769 1.63851C102.573 1.56303 101.758 1.42717 100.973 1.33659C100.188 1.24602 99.0404 1.06488 98.4215 0.944115C95.8402 0.445969 84.3376 -0.188024 82.2695 0.0535008Z" fill="black"/>
<path d="M365.609 13.5784C364.899 13.6538 364.024 13.8501 363.661 14.0161C363.299 14.1671 362.922 14.3029 362.831 14.3029C362.499 14.3029 360.461 15.3747 359.404 16.1144C355.887 18.5296 353.638 21.9714 352.914 26.0018C352.627 27.6321 352.627 28.4925 352.702 91.1381C352.763 134.265 352.838 155.067 352.944 156.048C353.125 157.633 353.608 159.263 354.332 160.652C355.495 162.916 357.563 165.241 359.842 166.826C362.152 168.426 365.835 169.634 368.462 169.634C371.375 169.634 374.998 168.351 377.534 166.418C378.289 165.83 380.191 164.003 380.704 163.354C382.168 161.513 383.195 159.384 383.663 157.256C384.01 155.686 384.01 155.535 384.025 145.783C384.04 134.567 384.085 133.692 384.689 132.816C385.534 131.609 387.859 131.095 389.399 131.76C390.697 132.333 391.859 133.45 410.744 152.214C424.948 166.328 424.858 166.252 427.499 167.853C428.284 168.336 429.9 168.909 431.424 169.271C433.643 169.785 436.043 169.8 438.142 169.271C439.681 168.894 441.025 168.396 441.734 167.928C441.961 167.792 442.187 167.671 442.248 167.671C442.414 167.671 443.576 166.841 444.527 166.041C445.433 165.286 447.018 163.399 447.667 162.313C448.482 160.939 448.648 160.577 449.116 159.173C449.539 157.859 449.569 157.633 449.584 155.293C449.584 153.014 449.554 152.682 449.176 151.368C448.754 149.889 448.256 148.727 447.591 147.67C446.625 146.13 445.448 144.923 435.696 135.458C427.877 127.85 415.061 114.974 414.548 114.189C413.008 111.864 413.416 108.543 415.544 106.188C417.461 104.075 428.632 93.0552 435.651 86.3831C445.433 77.0693 446.474 75.8466 447.667 72.1935C448.09 70.8953 448.105 70.7141 448.105 68.1177C448.105 65.5214 448.09 65.3402 447.667 64.1175C446.55 60.8116 444.995 58.653 442.323 56.6151C439.078 54.1697 435.394 53.1432 431.137 53.5357C429.296 53.7017 427.832 54.1395 426.141 55.015C423.922 56.1773 423.046 56.9321 414.306 65.3855C409.913 69.6273 409.672 69.8537 408.464 70.9708C407.936 71.4689 405.189 74.1559 402.366 76.9334C395.739 83.4848 392.871 86.2623 392.025 86.9416C389.248 89.1908 386.259 88.8738 384.689 86.1868C384.387 85.6736 384.266 85.1906 384.161 84.0584C384.1 83.2584 384.04 70.2009 384.025 55.0452C384.025 28.0095 384.025 27.451 383.723 25.9867C383.18 23.3148 382.138 21.0505 380.568 19.1334C376.96 14.6954 372.024 12.8689 365.609 13.5784Z" fill="black"/>
<path d="M198.881 13.7006C198.473 13.761 197.613 13.9874 196.994 14.1987C192.873 15.5875 190.02 18.0178 187.907 21.9577C187.68 22.3955 187.484 22.8333 187.484 22.9389C187.484 23.0446 187.378 23.3314 187.242 23.588C186.91 24.222 186.276 27.4524 186.276 28.5393C186.276 29.7771 186.835 32.9471 187.197 33.7623C187.348 34.1246 187.484 34.4868 187.484 34.5925C187.484 34.9397 188.586 36.9172 189.326 37.9135C191.016 40.1627 194.79 42.7742 197.311 43.4384C197.673 43.5289 198.277 43.7252 198.655 43.8459C199.168 44.0271 199.983 44.0875 201.976 44.1026C204.451 44.1177 204.708 44.0875 206.127 43.6799C206.957 43.4384 207.802 43.1516 208.014 43.0459C208.225 42.9402 208.633 42.744 208.919 42.6232C211.667 41.4307 214.656 38.4267 216.059 35.4378C217.675 31.981 217.961 27.4071 216.754 24.0862C215.908 21.7615 215.531 21.0671 214.157 19.3613C213.071 18.0028 211.863 17.0065 209.599 15.5875C208.889 15.1195 207.742 14.6214 206.353 14.1233C205.146 13.7006 204.919 13.6704 202.353 13.6251C200.858 13.5949 199.304 13.6251 198.881 13.7006Z" fill="black"/>
<path d="M286.434 52.5101C285.77 52.5705 284.139 52.7365 282.811 52.8573C281.482 52.9932 280.154 53.1592 279.867 53.2498C279.58 53.3403 278.826 53.4762 278.207 53.5517C277.15 53.7026 276.154 53.9291 273.905 54.5329C273.406 54.6687 272.531 54.9103 271.942 55.0612C271.369 55.2122 270.342 55.5443 269.678 55.7858C269.014 56.0273 268.138 56.3443 267.716 56.4953C267.308 56.6462 266.825 56.8576 266.659 56.9783C266.493 57.084 266.266 57.1746 266.146 57.1746C265.934 57.1746 265.134 57.5368 262.961 58.5935C262.01 59.0615 259.896 60.2238 258.749 60.9031C258.447 61.0842 257.964 61.3711 257.677 61.5522C256.002 62.5485 253.496 64.2995 252.696 65.0241C252.545 65.1449 252.213 65.4166 251.941 65.6279C249.782 67.2733 245.48 71.3642 243.865 73.3266C242.612 74.821 240.71 77.3872 239.653 78.9873C239.382 79.3949 239.034 79.9383 238.868 80.1798C238.355 80.9648 238.099 81.3875 237.253 82.8517C236.393 84.3763 234.732 87.6973 234.732 87.9237C234.732 87.9992 234.611 88.286 234.445 88.5728C234.294 88.8596 234.083 89.3729 233.977 89.705C233.872 90.0371 233.691 90.4748 233.585 90.6862C233.253 91.3051 232.317 94.143 231.909 95.7431C231.789 96.2412 231.562 97.1621 231.411 97.781C230.023 103.306 229.524 110.914 230.113 117.254C230.43 120.56 230.807 122.522 231.925 126.764C232.498 128.923 234.053 133.315 234.4 133.753C234.476 133.859 234.596 134.1 234.657 134.312C234.778 134.689 236.121 137.618 236.423 138.161C236.649 138.569 237.283 139.731 237.631 140.35C238.28 141.557 242.008 146.946 242.446 147.294C242.491 147.339 242.597 147.475 242.672 147.611C242.974 148.169 245.827 151.279 247.79 153.181C249.933 155.279 256.409 160.427 256.892 160.427C256.937 160.427 257.119 160.547 257.285 160.698C257.587 160.97 258.96 161.785 260.696 162.721C264.002 164.517 267.565 166.072 270.282 166.918C270.78 167.084 271.535 167.31 271.942 167.446C278.373 169.469 286.313 170.389 293.8 169.952C295.642 169.846 297.453 169.695 297.831 169.635C298.208 169.574 299.189 169.408 300.02 169.257C302.842 168.789 305.439 168.11 308.699 166.993C310.782 166.268 311.416 166.027 312.111 165.695C312.443 165.544 312.82 165.408 312.941 165.408C313.062 165.408 313.303 165.302 313.485 165.182C313.666 165.046 314.088 164.849 314.405 164.744C315.054 164.517 317.711 163.204 318.843 162.57C321.545 161.03 323.191 159.989 324.655 158.842C325.093 158.509 325.893 157.891 326.451 157.483C327.855 156.441 330.059 154.615 330.95 153.8C336.022 149.06 337.501 147.112 338.769 143.52C339.162 142.373 339.222 141.98 339.298 139.897C339.343 138.523 339.313 137.134 339.222 136.516C338.799 133.904 336.988 130.719 334.814 128.802C334.437 128.47 334.105 128.153 334.059 128.107C334.014 128.062 333.471 127.685 332.837 127.262C331.418 126.326 330.301 125.798 328.625 125.285C327.448 124.922 327.116 124.877 324.776 124.877C322.376 124.877 322.134 124.907 320.942 125.3C320.247 125.526 319.462 125.828 319.206 125.964C317.243 127.036 316.292 127.79 313.847 130.251C311.175 132.923 309.831 134.07 307.416 135.761C306.888 136.123 306.405 136.425 306.36 136.425C306.299 136.425 306.058 136.561 305.816 136.727C305.137 137.225 302.193 138.689 301.891 138.689C301.74 138.689 301.589 138.75 301.544 138.825C301.408 139.036 298.404 139.957 296.623 140.35C293.468 141.029 287.415 141.029 284.396 140.35C281.513 139.716 277.995 138.508 276.32 137.602C276.169 137.512 275.761 137.285 275.414 137.104C273.467 136.048 273.21 135.882 270.961 134.07C268.395 132.017 266.478 129.934 264.742 127.307C263.761 125.843 262.674 123.835 262.176 122.613C261.481 120.892 261.104 119.85 260.908 119.065C260.787 118.613 260.591 117.888 260.47 117.48C259.79 115.156 259.79 108.121 260.455 105.706C260.575 105.283 260.711 104.649 260.772 104.272C261.058 102.4 262.945 97.7659 264.153 95.9997C264.304 95.7733 264.621 95.2902 264.863 94.9129C266.538 92.3165 269.527 89.2974 272.561 87.1086C273.15 86.6859 273.829 86.2331 274.071 86.0972C274.312 85.9613 274.78 85.6745 275.112 85.4783C276.758 84.4669 279.656 83.2291 281.528 82.746C281.981 82.6253 282.72 82.429 283.158 82.2932C284.652 81.8554 288.698 81.4327 290.585 81.5233C292.668 81.629 296.019 82.0366 296.578 82.2479C296.804 82.3385 297.468 82.5045 298.042 82.6253C298.616 82.746 299.159 82.897 299.25 82.9725C299.34 83.0479 299.763 83.1989 300.17 83.3347C301.499 83.7423 303.205 84.5424 304.699 85.4783C305.031 85.6745 305.544 85.9915 305.831 86.1576C306.767 86.7161 308.865 88.3011 309.847 89.2068C310.239 89.5691 310.737 90.022 310.964 90.2333C314.194 93.2222 315.492 94.294 316.851 95.1695C317.304 95.4714 317.847 95.8186 318.058 95.9695C318.27 96.1054 318.708 96.3167 319.04 96.4224C319.372 96.5281 319.84 96.7092 320.081 96.83C320.67 97.1319 322.874 97.4791 324.172 97.4791C327.01 97.4791 329.486 96.6639 332.248 94.8374C333.622 93.9166 335.765 91.8183 336.49 90.6862C336.792 90.2333 337.154 89.6446 337.32 89.4031C337.939 88.4068 338.437 86.8821 338.664 85.1613C338.89 83.5612 338.89 83.2442 338.664 81.4327C338.286 78.2476 337.35 75.8173 335.584 73.402C334.331 71.6812 329.787 67.4545 326.889 65.3109C325.38 64.209 325.214 64.0882 323.372 62.8504C322.406 62.2013 321.44 61.5371 321.228 61.4012C321.017 61.2503 320.579 60.9937 320.247 60.8125C319.915 60.6314 319.342 60.3144 318.964 60.103C318.587 59.8766 317.741 59.4238 317.077 59.0615C316.398 58.7143 315.719 58.352 315.568 58.2614C314.39 57.6425 309.56 55.665 309.197 55.665C309.137 55.665 308.745 55.5292 308.322 55.3782C306.118 54.5329 303.205 53.8234 299.038 53.1139C295.28 52.4648 289.589 52.1931 286.434 52.5101Z" fill="black"/>
<path d="M199.5 53.566C195.983 53.9434 191.862 56.4341 189.567 59.589C188.224 61.4458 187.091 64.0874 186.699 66.3065C186.563 67.1216 186.503 77.3713 186.472 110.762C186.427 158.539 186.397 156.652 187.318 159.143C187.937 160.803 188.329 161.543 189.401 163.143C190.186 164.32 192.42 166.404 193.688 167.143C196.405 168.713 198.866 169.483 201.598 169.589C202.836 169.649 203.47 169.589 204.994 169.257C206.021 169.045 206.942 168.819 207.017 168.743C207.108 168.668 207.455 168.532 207.787 168.426C208.119 168.321 208.557 168.124 208.768 167.989C208.98 167.838 209.312 167.656 209.523 167.551C210.685 166.977 212.708 165.136 213.976 163.49C215.667 161.316 216.603 159.248 217.086 156.652C217.252 155.746 217.252 66.9405 217.086 66.1555C216.195 61.959 214.535 59.2268 211.289 56.6153C208.089 54.034 204.3 53.0528 199.5 53.566Z" fill="black"/>
<circle cx="487" cy="150" r="20" fill="black"/>
</svg>
