<svg width="574" height="588" viewBox="0 0 574 588" fill="none" xmlns="http://www.w3.org/2000/svg">
<path d="M273.944 0.176598C271.632 0.427992 257.256 1.73522 252.078 2.13745C249.867 2.33857 247.052 2.69051 245.795 2.9419C244.539 3.24357 240.92 3.79666 237.753 4.19889C234.586 4.60112 230.967 5.25475 229.711 5.65698C228.454 6.00894 226.443 6.46143 225.187 6.66254C223.93 6.81338 221.367 7.41674 219.406 7.91953C217.496 8.42232 214.531 9.17651 212.872 9.57874C204.88 11.4893 202.668 12.0926 201.06 12.7463C200.105 13.1485 198.044 13.8021 196.536 14.2044C195.028 14.5563 191.861 15.6122 189.499 16.4669C187.136 17.3216 184.12 18.3775 182.713 18.83C181.356 19.2825 179.747 19.8859 179.194 20.2378C178.641 20.5898 177.385 21.1429 176.38 21.4445C175.374 21.7462 173.715 22.4501 172.66 23.0032C171.554 23.5562 170.448 24.0087 170.147 24.0087C169.644 24.0087 162.255 27.4277 158.837 29.2377C158.133 29.64 154.665 31.45 151.046 33.3103C144.411 36.7796 143.154 37.4834 135.665 41.7571C130.538 44.6733 125.662 47.8409 118.625 52.9191C117.67 53.623 116.062 54.7291 115.107 55.433C97.0113 68.1535 70.974 93.7957 56.1459 113.505C54.5877 115.566 53.13 117.477 52.9289 117.779C50.9183 120.293 46.6961 126.527 43.2781 132.108C40.9659 135.829 38.704 139.449 38.2516 140.153C37.8495 140.857 37.1458 142.013 36.6934 142.767C36.2913 143.572 34.5823 146.588 32.9235 149.555C31.2145 152.572 29.0531 156.694 28.0478 158.756C24.5795 165.946 22.6192 170.27 22.6192 170.672C22.6192 170.873 22.2674 171.728 21.815 172.583C21.3626 173.387 20.6086 175.197 20.106 176.605C19.6033 177.962 18.8493 179.772 18.397 180.627C17.9446 181.432 17.5927 182.437 17.5927 182.739C17.5927 183.091 16.9895 184.901 16.2858 186.761C11.8123 198.426 7.69053 212.956 5.52914 224.722C5.02649 227.437 4.47358 229.85 4.32278 230.102C4.12172 230.353 3.56881 233.722 3.01589 237.543C2.46298 241.364 1.80954 245.738 1.55821 247.247C0.804238 251.269 0 268.866 0 280.581C0 294.056 0.804238 308.486 1.96033 315.626C2.51325 318.793 3.06616 322.765 3.26722 324.425C3.41801 326.084 3.92066 328.698 4.27252 330.207C4.67464 331.715 5.22755 334.43 5.47887 336.24C5.78046 338.05 6.43391 341.218 6.98682 343.279C7.53974 345.341 8.24344 348.156 8.5953 349.564C10.1032 355.798 12.8175 364.698 15.0795 370.932C15.934 373.296 17.0398 376.463 17.5424 377.971C18.0451 379.48 18.7991 381.541 19.2515 382.497C19.6536 383.452 20.7091 385.966 21.6139 388.027C22.5187 390.089 25.3838 396.072 27.9975 401.351C32.3203 410.1 33.6272 412.563 36.995 418.446C37.6484 419.552 38.7542 421.463 39.4579 422.72C41.0162 425.485 40.9659 425.435 46.0929 433.278C48.3548 436.747 51.2702 441.021 52.5268 442.831C53.7834 444.641 55.1909 446.652 55.6935 447.356C57.6036 450.222 69.0137 463.697 75.4476 470.736C86.3048 482.602 96.207 491.953 106.059 499.546C108.421 501.356 111.136 503.518 112.091 504.272C114.353 506.132 114.302 506.082 118.123 508.696C119.932 509.953 121.49 511.059 121.641 511.21C121.993 511.562 130.136 516.892 132.448 518.3C133.554 518.953 134.81 519.707 135.263 520.009C135.715 520.26 137.173 521.165 138.53 521.92C139.887 522.674 141.898 523.83 143.004 524.534C144.109 525.188 146.02 526.244 147.276 526.897C148.533 527.551 151.599 529.21 154.062 530.517C161.3 534.439 166.879 537.154 173.917 540.121C175.726 540.875 178.39 542.031 179.848 542.685C181.305 543.338 182.763 543.891 183.115 543.891C183.417 543.891 184.372 544.243 185.176 544.646C186.684 545.45 191.911 547.361 196.033 548.668C197.29 549.02 199.3 549.724 200.557 550.126C205.734 551.886 216.139 554.601 222.925 555.958C225.438 556.461 228.002 557.115 228.705 557.366C229.409 557.618 232.023 558.12 234.486 558.422C236.999 558.774 239.713 559.227 240.518 559.478C241.372 559.78 244.639 560.282 247.806 560.735C250.973 561.137 255.899 561.791 258.713 562.243C266.102 563.349 284.801 563.902 299.327 563.45C312.396 563.048 314.306 562.897 320.941 561.74C323.153 561.338 326.571 560.886 328.481 560.735C330.441 560.534 333.256 560.081 334.815 559.679C336.373 559.277 339.439 558.724 341.6 558.472C343.762 558.171 346.576 557.618 347.833 557.215C349.09 556.813 351 556.361 352.106 556.21C354.317 555.858 361.857 553.847 365.426 552.64C366.682 552.238 368.995 551.534 370.603 551.132C372.212 550.729 374.021 550.176 374.624 549.824C375.227 549.523 376.735 548.97 377.992 548.618C380.003 548.014 382.566 547.109 390.558 544.143C391.815 543.69 394.931 542.333 397.495 541.076C400.058 539.869 402.32 538.864 402.521 538.864C402.722 538.864 403.677 538.461 404.632 537.908C405.587 537.406 407.699 536.601 409.307 536.149C412.826 535.143 414.786 535.545 417.953 538.009C419.058 538.864 427.503 547.26 436.752 556.612C459.321 579.489 462.286 581.852 472.741 585.673C480.985 588.69 495.21 588.79 504.408 585.874C507.877 584.768 513.004 582.455 516.472 580.444C520.242 578.282 525.721 573.154 528.988 568.779C534.215 561.791 536.477 556.16 537.935 546.556L539.041 539.366L537.935 532.981C536.528 524.685 534.517 519.355 530.094 512.518C528.837 510.557 522.051 503.367 511.445 492.859C492.747 474.255 454.395 436.647 446.352 429.004C443.487 426.239 427.855 410.653 411.67 394.413C395.484 378.122 379.952 362.737 377.087 360.223C368.894 352.933 364.119 349.966 355.624 346.949C351.703 345.592 351.352 345.542 341.55 345.542C332.352 345.592 331.246 345.692 328.732 346.698C327.224 347.301 325.666 347.804 325.314 347.804C324.912 347.804 323.103 348.558 321.193 349.514C310.436 354.793 302.142 363.391 297.669 373.899C295.658 378.575 294.05 386.267 293.748 392.552C293.497 397.53 293.648 399.189 294.703 404.368C295.809 409.647 297.568 414.725 299.076 417.189C299.378 417.591 299.981 418.748 300.534 419.703C301.489 421.412 304.806 426.189 306.214 427.747C306.566 428.2 308.124 429.96 309.632 431.77C311.14 433.53 316.116 438.356 320.69 442.529C333.91 454.596 335.619 456.658 333.608 458.367C332.603 459.172 325.817 461.334 322.952 461.686C321.595 461.887 319.132 462.339 317.574 462.742C314.457 463.496 308.928 464.099 296.714 464.903C286.208 465.658 264.594 464.451 256.602 462.742C254.692 462.289 251.375 461.635 249.314 461.233C241.322 459.674 238.155 458.82 229.962 456.155C228.605 455.702 226.343 455.049 224.935 454.647C223.578 454.244 221.517 453.44 220.412 452.887C219.356 452.334 218.2 451.881 217.848 451.881C217.295 451.881 213.475 450.323 209.353 448.362C204.628 446.15 194.626 441.172 192.917 440.166C173.565 428.904 154.263 412.513 141.496 396.575C138.731 393.105 136.017 389.636 135.464 388.832C134.911 388.027 134.006 386.77 133.453 386.016C130.84 382.446 124.707 372.893 123.551 370.681C117.318 358.413 114.755 353.033 112.845 347.804C112.091 345.743 111.085 343.028 110.583 341.771C108.824 337.497 105.255 324.324 104.501 319.648C104.249 317.838 103.696 315.123 103.294 313.615C102.892 312.106 102.339 308.034 102.038 304.564C101.736 301.095 101.284 296.922 100.982 295.263C100.178 290.235 99.8764 275.101 100.48 268.364C102.239 247.95 103.747 240.006 108.572 225.627C111.387 217.23 111.99 215.521 113.046 213.308C113.599 212.202 114.755 209.688 115.609 207.778C116.464 205.817 117.369 203.906 117.62 203.504C117.871 203.102 119.128 200.688 120.435 198.225C123.551 192.292 124.255 190.985 125.361 189.175C125.914 188.32 126.869 186.811 127.522 185.756C133.554 176.102 133.504 176.152 139.837 168.108C148.281 157.398 166.075 140.102 174.62 134.371C175.425 133.818 176.681 132.913 177.435 132.36C178.893 131.304 183.517 128.186 186.483 126.326C191.509 123.058 209.203 114.058 212.57 112.952C213.274 112.751 215.586 111.846 217.647 110.991C227.047 107.019 240.819 102.846 250.671 100.986C253.486 100.433 256.049 99.8795 256.301 99.6783C256.602 99.5275 262.282 98.8236 269.018 98.1197C278.97 97.0638 282.69 96.8627 289.275 97.1141C299.177 97.4661 315.463 99.1253 319.182 100.131C320.69 100.583 322.5 100.935 323.203 100.935C323.907 100.935 325.717 101.287 327.224 101.74C328.732 102.142 331.698 102.946 333.759 103.449C337.328 104.304 340.695 105.31 344.063 106.567C344.918 106.818 346.828 107.522 348.336 108.025C349.844 108.578 351.804 109.332 352.608 109.684C353.463 110.086 354.669 110.539 355.373 110.74C356.077 110.941 357.333 111.544 358.188 112.047C359.042 112.6 360.047 113.002 360.349 113.002C360.651 113.002 363.315 114.108 366.23 115.516C369.145 116.874 371.608 118.03 371.709 118.03C371.86 118.03 378.997 121.952 383.923 124.818C384.426 125.069 387.542 127.131 390.81 129.343C403.175 137.589 410.664 143.773 421.27 154.583C430.368 163.784 438.561 173.789 443.889 182.136C449.62 191.135 451.982 195.208 455.651 202.498C459.773 210.644 460.527 212.554 465.704 227.386C466.157 228.744 466.81 231.258 467.162 232.917C467.514 234.576 468.167 237.04 468.62 238.448C469.022 239.805 469.524 241.867 469.675 242.973C469.876 244.079 470.429 246.895 470.982 249.258C472.239 254.839 473.546 267.157 473.847 276.911C474.249 289.079 472.44 305.821 469.223 319.648C467.212 328.095 462.99 341.72 461.18 345.542C457.913 352.48 455.752 359.067 455.702 362.385C455.651 366.206 457.461 370.379 460.979 374.754C462.538 376.664 468.569 382.798 474.35 388.329C480.08 393.809 491.842 405.323 500.437 413.82C509.083 422.368 516.975 429.909 518.03 430.563C520.443 432.021 523.157 432.122 525.721 430.764C528.184 429.507 529.792 427.597 534.919 419.451C536.326 417.239 537.985 414.625 538.639 413.669C540.85 410.301 546.329 399.541 550.401 390.793C551.255 388.832 552.562 386.117 553.215 384.759C553.869 383.351 554.422 381.943 554.422 381.541C554.422 381.189 554.774 380.284 555.176 379.58C555.578 378.826 556.382 376.966 556.885 375.458C561.057 362.888 562.062 359.771 564.877 350.067C565.48 348.106 566.184 345.139 566.485 343.43C566.787 341.67 567.34 339.408 567.692 338.402C568.044 337.346 568.496 335.234 568.697 333.726C568.898 332.218 569.351 329.704 569.753 328.195C570.155 326.637 570.708 323.117 571.009 320.402C571.311 317.637 571.864 313.212 572.266 310.598C574.578 296.017 574.578 257.353 572.266 244.481C571.914 242.269 571.311 238.398 571.06 235.934C570.758 233.42 570.306 230.604 570.004 229.649C569.702 228.694 569.149 225.778 568.747 223.213C568.295 220.649 567.742 217.934 567.44 217.18C567.139 216.426 566.686 214.565 566.435 213.057C566.134 211.549 565.48 208.934 564.977 207.275C564.425 205.616 563.218 201.744 562.213 198.728C558.946 188.32 554.171 175.499 552.713 173.186C552.311 172.583 551.858 171.527 551.657 170.823C551.255 169.465 542.107 151.013 539.895 147.091C539.192 145.834 537.734 143.27 536.678 141.41C534.969 138.343 527.58 127.131 524.866 123.36C524.263 122.505 523.358 121.198 522.855 120.494C521.549 118.533 513.506 108.075 512.049 106.466C511.697 106.064 509.586 103.55 507.424 100.935C505.212 98.3208 498.678 91.3823 492.847 85.55C476.813 69.5111 459.672 55.7849 441.074 44.2208C439.969 43.5169 438.461 42.5113 437.707 42.0086C436.953 41.5058 435.797 40.8521 435.193 40.5505C434.54 40.2991 432.781 39.2935 431.273 38.3885C427.352 35.9751 409.609 26.9752 405.135 25.0646C403.074 24.2099 400.46 23.0534 399.355 22.5506C392.971 19.5842 382.365 15.6625 375.479 13.8021C373.971 13.3999 372.061 12.7966 371.206 12.4949C368.04 11.3888 361.053 9.47814 358.891 9.17647C357.635 8.97535 355.775 8.47259 354.719 8.12064C353.664 7.71841 350.648 7.11505 348.084 6.66254C345.521 6.26031 342.857 5.70727 342.203 5.45587C341.55 5.20448 338.836 4.75194 336.222 4.45027C333.608 4.14859 329.788 3.54524 327.727 3.14301C319.132 1.48381 280.83 -0.627862 273.944 0.176598Z" fill="black"/>
</svg>
